<svg xmlns="http://www.w3.org/2000/svg" viewBox="0 0 128 128" width="128" height="128">
  <rect width="128" height="128" rx="16" fill="#1e1e1e"/>
  <!-- Root node -->
  <rect x="44" y="8" width="40" height="20" rx="4" fill="#ff8c00"/>
  <!-- Level 1 left -->
  <rect x="10" y="42" width="36" height="18" rx="4" fill="#2ecc71"/>
  <!-- Level 1 right -->
  <rect x="82" y="42" width="36" height="18" rx="4" fill="#2ecc71"/>
  <!-- Level 2 leaves -->
  <rect x="4" y="74" width="28" height="16" rx="3" fill="#3498db"/>
  <rect x="36" y="74" width="28" height="16" rx="3" fill="#3498db"/>
  <rect x="68" y="74" width="28" height="16" rx="3" fill="#f1c40f"/>
  <rect x="100" y="74" width="24" height="16" rx="3" fill="#9b59b6"/>
  <!-- Edges -->
  <line x1="64" y1="28" x2="28" y2="42" stroke="#888" stroke-width="2"/>
  <line x1="64" y1="28" x2="100" y2="42" stroke="#888" stroke-width="2"/>
  <line x1="28" y1="60" x2="18" y2="74" stroke="#888" stroke-width="1.5"/>
  <line x1="28" y1="60" x2="50" y2="74" stroke="#888" stroke-width="1.5"/>
  <line x1="100" y1="60" x2="82" y2="74" stroke="#888" stroke-width="1.5"/>
  <line x1="100" y1="60" x2="112" y2="74" stroke="#888" stroke-width="1.5"/>
  <!-- Label -->
  <text x="64" y="112" text-anchor="middle" fill="#ccc" font-family="sans-serif" font-size="14" font-weight="bold">BT</text>
</svg>
